<svg width="16" height="16" viewBox="0 0 16 16" fill="none" xmlns="http://www.w3.org/2000/svg">
<path d="M8.28567 16C6.08817 16 3.98068 15.127 2.42682 13.5732C0.872952 12.0193 0 9.91183 0 7.71433C0 4.35721 1.92856 1.34722 4.91462 0.0475886C5.01986 0.00172278 5.13647 -0.0113816 5.24926 0.00998327C5.36206 0.0313481 5.4658 0.0861915 5.54698 0.167367C5.62815 0.248543 5.68299 0.352286 5.70436 0.46508C5.72572 0.577874 5.71262 0.694488 5.66675 0.799727C5.3239 1.58687 5.14283 2.59507 5.14283 3.71435C5.14283 7.6529 8.3471 10.8572 12.2856 10.8572C13.4049 10.8572 14.4131 10.6761 15.2003 10.3332C15.3055 10.2874 15.4221 10.2743 15.5349 10.2956C15.6477 10.317 15.7515 10.3718 15.8326 10.453C15.9138 10.5342 15.9687 10.6379 15.99 10.7507C16.0114 10.8635 15.9983 10.9801 15.9524 11.0854C14.6528 14.0714 11.6428 16 8.28567 16Z" fill="#8C8C8C"/>
</svg>
