 <svg width="16" height="16" viewBox="0 0 16 16" fill="none" xmlns="http://www.w3.org/2000/svg">
<path d="M0.0850048 10.8529L2.05993 7.98596L0.0865669 5.14681C-0.111301 4.86214 0.0520678 4.4686 0.393617 4.40683L3.79973 3.79227L4.41533 0.391898C4.47705 0.0509245 4.87125 -0.112231 5.15655 0.0854274L8.00031 2.08335L10.8721 0.113192C11.1572 -0.0843417 11.5514 0.0786578 11.6133 0.419662L12.2001 3.82128L15.6075 4.43585C15.949 4.49512 16.1124 4.89131 15.9145 5.14712L13.941 8.01404L15.9144 10.8532C16.1122 11.1379 15.9489 11.5314 15.6074 11.5932L12.2013 12.2077L11.5857 15.6081C11.524 15.9491 11.1298 16.1122 10.8445 15.9146L8.00031 13.9444L5.15637 15.9144C4.87116 16.112 4.4767 15.949 4.41514 15.608L3.79954 12.2077L0.39343 11.5931C0.0506306 11.533 -0.111862 11.1368 0.0850048 10.8529ZM8.00031 11.9791C21.2494 11.9791 -4.74874 11.9791 8.00031 11.9791V11.9791Z" fill="white"/>
<circle cx="7.99984" cy="7.99996" r="4.83333" fill="white" stroke="#F10E1D"/>
</svg>
