<svg width="71" height="71" viewBox="0 0 71 71" fill="none" xmlns="http://www.w3.org/2000/svg">
<g clip-path="url(#clip0_2019_2338)">
<path d="M16.4127 60.6882L53.13 23.971V39.848C53.13 41.0222 53.5964 42.1484 54.4268 42.9787C55.2571 43.809 56.3832 44.2755 57.5575 44.2755C58.7317 44.2755 59.8579 43.809 60.6882 42.9787C61.5185 42.1484 61.985 41.0222 61.985 39.848V13.283C61.9844 12.1091 61.5177 10.9835 60.6874 10.1537C59.8572 9.32385 58.7313 8.85768 57.5575 8.85768L30.9925 8.85547C29.8182 8.85547 28.6921 9.32194 27.8618 10.1523C27.0314 10.9826 26.565 12.1087 26.565 13.283C26.565 14.4572 27.0314 15.5834 27.8618 16.4137C28.6921 17.244 29.8182 17.7105 30.9925 17.7105H46.8695L10.1522 54.4277C9.28666 55.2911 8.85498 56.4245 8.85498 57.558C8.85498 58.6914 9.28666 59.8249 10.1522 60.6882C10.9825 61.5182 12.1085 61.9845 13.2825 61.9845C14.4565 61.9845 15.5824 61.5182 16.4127 60.6882Z" fill="#39496A"/>
</g>
<rect x="0.5" y="0.5" width="69.84" height="69.84" rx="34.92" stroke="#4E5D73" stroke-opacity="0.57"/>
<defs>
<clipPath id="clip0_2019_2338">
<rect width="70.84" height="70.84" rx="35.42" fill="white"/>
</clipPath>
</defs>
</svg>
