<svg width="19" height="19" viewBox="0 0 19 19" fill="none" xmlns="http://www.w3.org/2000/svg">
<g clip-path="url(#clip0_2131_48)">
<path d="M14.2418 0.597999C13.779 0.603839 13.3368 0.789526 13.0085 1.11575L11.6423 2.48078L15.3556 6.19409L16.7213 4.82906C17.0534 4.49298 17.2396 4.03953 17.2396 3.56705C17.2396 3.09456 17.0534 2.64112 16.7213 2.30503C16.7213 2.30503 15.529 1.11575 15.5272 1.11575C15.3587 0.947344 15.158 0.814684 14.937 0.725718C14.716 0.636752 14.4799 0.593312 14.2418 0.597999ZM10.8016 3.32212L2.30086 11.8228C1.96727 12.1577 1.77947 12.6107 1.77836 13.0834V15.4619C1.77804 15.5405 1.7933 15.6184 1.82324 15.691C1.85319 15.7637 1.89723 15.8297 1.95282 15.8852C2.00841 15.9407 2.07445 15.9847 2.14713 16.0146C2.21981 16.0445 2.29769 16.0596 2.37627 16.0592L4.75483 16.0545C5.2254 16.0547 5.67691 15.8685 6.01061 15.5367L14.5161 7.03603L10.8016 3.32212ZM2.3157 17.2479L2.31452 17.2491C1.53967 17.3067 1.59964 18.4616 2.37627 18.4384H16.6476C17.4587 18.4568 17.4587 17.2307 16.6476 17.2491H2.37627C2.35608 17.2479 2.33589 17.2473 2.3157 17.2479Z" fill="white"/>
</g>
<defs>
<clipPath id="clip0_2131_48">
<rect width="19" height="19" fill="white"/>
</clipPath>
</defs>
</svg>
