<svg width="21" height="17" viewBox="0 0 21 17" fill="none" xmlns="http://www.w3.org/2000/svg">
<mask id="mask0_2019_4450" style="mask-type:alpha" maskUnits="userSpaceOnUse" x="0" y="0" width="21" height="17">
<path fill-rule="evenodd" clip-rule="evenodd" d="M20.7076 0H0V16.8249H20.7076V0ZM7.64207 8.41249C7.64207 9.05778 7.09027 9.58079 6.40948 9.58079C5.72869 9.58079 5.17689 9.05778 5.17689 8.41249C5.17689 7.76711 5.72869 7.24409 6.40948 7.24409C7.09027 7.24409 7.64207 7.76711 7.64207 8.41249ZM11.5864 8.41249C11.5864 9.05778 11.0346 9.58079 10.3538 9.58079C9.67299 9.58079 9.12118 9.05778 9.12118 8.41249C9.12118 7.76711 9.67299 7.24409 10.3538 7.24409C11.0346 7.24409 11.5864 7.76711 11.5864 8.41249ZM14.2981 9.58079C14.9789 9.58079 15.5307 9.05778 15.5307 8.41249C15.5307 7.76711 14.9789 7.24409 14.2981 7.24409C13.6173 7.24409 13.0655 7.76711 13.0655 8.41249C13.0655 9.05778 13.6173 9.58079 14.2981 9.58079Z" fill="#D9D9D9"/>
</mask>
<g mask="url(#mask0_2019_4450)">
<path d="M1.22559 7.24111C1.22559 4.14375 3.87448 1.63281 7.14203 1.63281H13.5515C16.8191 1.63281 19.468 4.14375 19.468 7.24111V9.57791C19.468 12.6753 16.8191 15.1862 13.5515 15.1862H1.22559V7.24111Z" fill="#1D1D1B" stroke="#1D1D1B" stroke-width="1.47913" stroke-linejoin="round"/>
</g>
</svg>
