<svg width="25" height="25" viewBox="0 0 25 25" fill="none" xmlns="http://www.w3.org/2000/svg">
<g clip-path="url(#clip0_2019_1519)">
<path d="M23.907 22.4816L22.8208 21.3953L21.0761 19.6537L23.8889 16.8408C24.0087 16.7209 24.0963 16.5728 24.1436 16.4101C24.191 16.2474 24.1966 16.0753 24.1599 15.9099C24.1232 15.7444 24.0454 15.5909 23.9337 15.4635C23.822 15.3361 23.68 15.2388 23.5208 15.1808L14.476 11.8993C14.1157 11.7691 13.7259 11.7443 13.352 11.8276C12.9781 11.9109 12.6357 12.099 12.3649 12.3698C12.094 12.6406 11.9058 12.983 11.8224 13.3568C11.7389 13.7306 11.7637 14.1205 11.8937 14.4808L15.1843 23.5256C15.2421 23.6849 15.3391 23.8271 15.4665 23.939C15.5938 24.0508 15.7473 24.1287 15.9128 24.1654C16.0783 24.2021 16.2503 24.1965 16.413 24.149C16.5757 24.1015 16.7238 24.0137 16.8436 23.8937L19.6534 21.0763L22.4813 23.9043C22.6704 24.0934 22.9268 24.1996 23.1942 24.1996C23.4616 24.1996 23.718 24.0934 23.907 23.9043C24.0961 23.7152 24.2023 23.4588 24.2023 23.1915C24.2023 22.9241 24.0961 22.6677 23.907 22.4786V22.4816Z" fill="#39496A"/>
<path d="M10.0842 20.1684C4.51446 20.1684 0 15.6532 0 10.0842C0 4.51521 4.51521 0 10.0842 0C15.6532 0 20.1684 4.51521 20.1684 10.0842C20.1684 10.3517 20.0622 10.6082 19.8731 10.7973C19.6839 10.9864 19.4274 11.0926 19.16 11.0926C18.8925 11.0926 18.636 10.9864 18.4469 10.7973C18.2578 10.6082 18.1516 10.3517 18.1516 10.0842C18.1516 5.62871 14.5397 2.01684 10.0842 2.01684C5.62871 2.01684 2.01684 5.62871 2.01684 10.0842C2.01684 14.5397 5.62871 18.1516 10.0842 18.1516C10.3517 18.1516 10.6082 18.2578 10.7973 18.4469C10.9864 18.636 11.0926 18.8925 11.0926 19.16C11.0926 19.4274 10.9864 19.6839 10.7973 19.8731C10.6082 20.0622 10.3517 20.1684 10.0842 20.1684Z" fill="#39496A"/>
<path d="M8.15205 15.7529C8.01944 15.7532 7.88812 15.727 7.76577 15.6758C6.30663 15.0449 5.15438 13.8651 4.55807 12.3915C3.96176 10.9178 3.96928 9.26875 4.57901 7.80062C5.18875 6.33249 6.35171 5.16327 7.81655 4.54566C9.28138 3.92805 10.9304 3.91167 12.4072 4.50006C13.8884 5.11519 15.0647 6.29336 15.6774 7.77554C15.7839 8.02094 15.7885 8.29857 15.6902 8.54737C15.592 8.79617 15.3989 8.99575 15.1535 9.10221C14.9081 9.20867 14.6305 9.21328 14.3817 9.11504C14.1329 9.0168 13.9333 8.82374 13.8269 8.57835L13.8133 8.54584C13.5591 7.93351 13.158 7.39325 12.6454 6.97288C12.1327 6.5525 11.5244 6.26496 10.8741 6.1357C10.2239 6.00644 9.5518 6.03945 8.91735 6.2318C8.2829 6.42415 7.70564 6.76991 7.23665 7.2385C6.76766 7.70709 6.4214 8.28405 6.2285 8.91833C6.0356 9.55261 6.00202 10.2247 6.13072 10.875C6.25942 11.5254 6.54644 12.134 6.96637 12.647C7.38631 13.16 7.92622 13.5616 8.53833 13.8162C8.75345 13.906 8.93086 14.0675 9.04041 14.2733C9.14996 14.479 9.18491 14.7163 9.13932 14.9449C9.09372 15.1735 8.97039 15.3793 8.79029 15.5273C8.61018 15.6753 8.3844 15.7563 8.15129 15.7567V15.7529H8.15205Z" fill="#39496A"/>
</g>
<defs>
<clipPath id="clip0_2019_1519">
<rect width="24.19" height="24.19" fill="white"/>
</clipPath>
</defs>
</svg>
