<svg width="25" height="25" viewBox="0 0 25 25" fill="none" xmlns="http://www.w3.org/2000/svg">
<g clip-path="url(#clip0_2019_1495)">
<path d="M15.047 9.07125H15.1196C16.7864 9.07125 18.1433 7.71434 18.1433 6.0475V3.02375C18.1433 1.35691 16.7864 0 15.1196 0H9.07205C7.40521 0 6.0483 1.35691 6.0483 3.02375V6.0475C6.0483 7.71434 7.40521 9.07125 9.07205 9.07125H9.2754L11.1237 10.7011C11.4162 10.9588 11.7821 11.0881 12.148 11.0881C12.5085 11.0881 12.8699 10.9611 13.1541 10.7094L15.047 9.07125ZM5.54409 18.1425C7.48912 18.1425 9.07205 16.5603 9.07205 14.6145C9.07205 12.6688 7.48987 11.0866 5.54409 11.0866C3.59906 11.0866 2.01613 12.6688 2.01613 14.6145C2.01613 16.5603 3.59831 18.1425 5.54409 18.1425ZM15.1196 14.6145C15.1196 16.5596 16.7017 18.1425 18.6475 18.1425C20.5933 18.1425 22.1755 16.5603 22.1755 14.6145C22.1755 12.6695 20.5933 11.0866 18.6475 11.0866C16.7017 11.0866 15.1196 12.6688 15.1196 14.6145ZM5.54409 19.1502C3.09107 19.1502 0.889784 20.628 0.0642999 22.8278C0.00732679 22.9802 -0.0119034 23.1442 0.00825163 23.3057C0.0284067 23.4672 0.0873481 23.6214 0.180042 23.7552C0.272736 23.889 0.396429 23.9983 0.540557 24.0739C0.684684 24.1495 0.844965 24.1891 1.00771 24.1892H10.079C10.4093 24.1892 10.7192 24.0267 10.9075 23.7561C11.0957 23.484 11.138 23.137 11.0224 22.8278C10.1976 20.6273 7.9956 19.1502 5.54258 19.1502H5.54409ZM24.1273 22.8286C23.3026 20.628 21.1005 19.1509 18.6475 19.1509C16.1945 19.1509 13.9932 20.6288 13.1677 22.8286C13.1107 22.981 13.0915 23.145 13.1117 23.3065C13.1318 23.468 13.1908 23.6222 13.2835 23.7559C13.3762 23.8897 13.4999 23.9991 13.644 24.0746C13.7881 24.1502 13.9484 24.1898 14.1111 24.19H23.1824C23.5127 24.19 23.8227 24.0275 24.0109 23.7568C24.1991 23.4847 24.2415 23.1377 24.1258 22.8286H24.1273Z" fill="white"/>
</g>
<defs>
<clipPath id="clip0_2019_1495">
<rect width="24.19" height="24.19" fill="white"/>
</clipPath>
</defs>
</svg>
