<svg width="25" height="29" viewBox="0 0 25 29" fill="none" xmlns="http://www.w3.org/2000/svg">
<path d="M16.2945 1.17578H3.35962C2.06613 1.17578 1.00781 2.23409 1.00781 3.52759V18.8143C1.00781 19.461 1.53697 19.9902 2.18372 19.9902C2.83046 19.9902 3.35962 19.461 3.35962 18.8143V4.70349C3.35962 4.05674 3.88877 3.52759 4.53552 3.52759H16.2945C16.9412 3.52759 17.4705 2.99843 17.4705 2.35168C17.4705 1.70494 16.9412 1.17578 16.2945 1.17578ZM20.9982 5.87939H8.06323C6.76974 5.87939 5.71142 6.93771 5.71142 8.2312V24.6938C5.71142 25.9873 6.76974 27.0456 8.06323 27.0456H20.9982C22.2917 27.0456 23.35 25.9873 23.35 24.6938V8.2312C23.35 6.93771 22.2917 5.87939 20.9982 5.87939ZM19.8223 24.6938H9.23913C8.59239 24.6938 8.06323 24.1647 8.06323 23.5179V9.4071C8.06323 8.76035 8.59239 8.2312 9.23913 8.2312H19.8223C20.4689 8.2312 20.9982 8.76035 20.9982 9.4071V23.5179C20.9982 24.1647 20.4689 24.6938 19.8223 24.6938Z" fill="white"/>
</svg>
