<svg width="25" height="25" viewBox="0 0 25 25" fill="none" xmlns="http://www.w3.org/2000/svg">
<path d="M6.05678 6.55233C6.0545 5.54992 6.42575 4.58261 7.0981 3.83912C7.77046 3.09564 8.69569 2.62931 9.69329 2.53112C10.6909 2.43292 11.6893 2.70991 12.4937 3.30804C13.2981 3.90617 13.8508 4.78254 14.044 5.76616C14.1601 6.35077 14.1451 6.95385 14.0003 7.53199C13.8554 8.11014 13.5841 8.64898 13.206 9.10975C12.828 9.57052 12.3525 9.94176 11.8138 10.1968C11.275 10.4518 10.6865 10.5842 10.0905 10.5845C9.56103 10.5846 9.03675 10.4804 8.54759 10.2778C8.05843 10.0753 7.61398 9.77832 7.2396 9.40395C6.86523 9.02958 6.56828 8.58512 6.36572 8.09596C6.16316 7.6068 6.05895 7.08253 6.05905 6.55309L6.05678 6.55233ZM11.8435 17.4681C11.8586 16.6775 12.0333 15.8981 12.3572 15.1768C12.681 14.4555 13.1473 13.807 13.728 13.2704C13.7591 13.2421 13.7839 13.2078 13.8009 13.1694C13.818 13.1311 13.8268 13.0896 13.827 13.0477C13.8271 13.0057 13.8185 12.9642 13.8017 12.9258C13.785 12.8873 13.7604 12.8528 13.7296 12.8243C13.6869 12.7864 13.6341 12.7618 13.5776 12.7533C13.0903 12.6498 12.5934 12.5983 12.0952 12.5998H8.0638C3.97191 12.5998 2.52051 15.5933 2.52051 18.1635C2.52051 20.4616 3.73984 21.6711 6.04847 21.6711H13.0129C13.0721 21.6705 13.1298 21.6525 13.1787 21.6193C13.2277 21.5861 13.2657 21.5391 13.2881 21.4844C13.3108 21.4297 13.3169 21.3696 13.3056 21.3115C13.2943 21.2534 13.2661 21.2 13.2246 21.1578C12.3302 20.1375 11.8391 18.8249 11.8435 17.4681ZM22.7086 22.709C22.6385 22.7793 22.5552 22.8352 22.4635 22.8732C22.3718 22.9113 22.2734 22.9309 22.1741 22.9309C22.0748 22.9309 21.9765 22.9113 21.8848 22.8732C21.7931 22.8352 21.7098 22.7793 21.6397 22.709L19.7929 20.8645C18.9435 21.4477 17.9067 21.6923 16.8861 21.5503C15.8656 21.4084 14.9349 20.8901 14.2768 20.0972C13.6181 19.3051 13.2791 18.2953 13.3265 17.2661C13.3739 16.2369 13.8043 15.2625 14.5331 14.5343C15.2622 13.8082 16.2359 13.3803 17.2638 13.334C18.2917 13.2877 19.2999 13.6265 20.0913 14.2841C20.8827 14.9416 21.4004 15.8707 21.5432 16.8897C21.686 17.9087 21.4435 18.9443 20.8633 19.7941L22.7078 21.6408C22.7782 21.7109 22.834 21.7942 22.8721 21.8859C22.9102 21.9777 22.9298 22.076 22.9298 22.1753C22.9298 22.2746 22.9102 22.3729 22.8721 22.4646C22.834 22.5564 22.7782 22.6397 22.7078 22.7097L22.7086 22.709ZM20.0749 17.4681C20.0752 16.9529 19.9226 16.4492 19.6363 16.0208C19.3501 15.5925 18.9431 15.2587 18.467 15.0619C18.1112 14.9143 17.7271 14.8475 17.3424 14.8663C16.9576 14.885 16.5818 14.989 16.2421 15.1706C15.9024 15.3521 15.6072 15.6068 15.3778 15.9163C15.1484 16.2257 14.9906 16.5822 14.9156 16.9601C14.8448 17.3164 14.8494 17.6837 14.929 18.0382C15.0087 18.3927 15.1616 18.7266 15.378 19.0184C15.5944 19.3103 15.8695 19.5536 16.1855 19.7328C16.5016 19.912 16.8517 20.0231 17.2132 20.0589C17.5748 20.0947 17.9398 20.0545 18.2849 19.9408C18.63 19.8271 18.9474 19.6424 19.2169 19.3987C19.4863 19.155 19.7018 18.8576 19.8494 18.5256C19.9971 18.1936 20.0736 17.8344 20.0741 17.4711L20.0749 17.4681Z" fill="white"/>
</svg>
