<svg width="28" height="28" viewBox="0 0 28 28" fill="none" xmlns="http://www.w3.org/2000/svg">
<path d="M20.0634 0H7.57724C3.39915 0 0 3.39915 0 7.5773V20.0634C0 24.2415 3.39915 27.6406 7.57724 27.6406H20.0634C24.2415 27.6406 27.6406 24.2415 27.6406 20.0634V7.5773C27.6406 3.39915 24.2415 0 20.0634 0ZM13.8203 21.4017C9.63992 21.4017 6.23906 18.0007 6.23906 13.8203C6.23906 9.63992 9.63998 6.23911 13.8203 6.23911C18.0006 6.23911 21.4017 9.63998 21.4017 13.8203C21.4017 18.0006 18.0006 21.4017 13.8203 21.4017ZM21.8551 8.08898C20.585 8.08898 19.5517 7.05569 19.5517 5.78563C19.5517 4.51556 20.585 3.48223 21.8551 3.48223C23.125 3.48223 24.1583 4.51552 24.1583 5.78558C24.1583 7.05564 23.125 8.08898 21.8551 8.08898Z" fill="white"/>
</svg>
