<svg width="28" height="28" viewBox="0 0 28 28" fill="none" xmlns="http://www.w3.org/2000/svg">
<path d="M27.6373 27.6403L27.6442 27.6392V17.502C27.6442 12.5428 26.5766 8.72266 20.7789 8.72266C17.9918 8.72266 16.1215 10.2521 15.3579 11.7021H15.2773V9.18564H9.78027V27.6392H15.5042V18.5016C15.5042 16.0958 15.9603 13.7693 18.9397 13.7693C21.8754 13.7693 21.9191 16.515 21.9191 18.656V27.6403H27.6373Z" fill="white"/>
<path d="M0.458984 9.1875H6.1898V27.6411H0.458984V9.1875Z" fill="white"/>
<path d="M3.31918 0C1.48683 0 0 1.48683 0 3.31918C0 5.15152 1.48683 6.66945 3.31918 6.66945C5.15152 6.66945 6.63835 5.15152 6.63835 3.31918C6.6372 1.48683 5.15037 0 3.31918 0Z" fill="white"/>
</svg>
