<svg width="26" height="26" viewBox="0 0 26 26" fill="none" xmlns="http://www.w3.org/2000/svg">
<path fill-rule="evenodd" clip-rule="evenodd" d="M12.52 1.30469C8.6357 1.30469 5.47754 4.49103 5.47754 8.42127C5.47754 9.75256 6.06389 11.4042 6.91734 13.0516C8.79639 16.6793 11.9264 20.333 11.9264 20.333C12.0746 20.5063 12.2916 20.6064 12.52 20.6064C12.7485 20.6064 12.9655 20.5063 13.1137 20.333C13.1137 20.333 16.2437 16.6793 18.1228 13.0516C18.9762 11.4042 19.5625 9.75256 19.5625 8.42127C19.5625 4.49103 16.4043 1.30469 12.52 1.30469ZM12.52 5.47802C10.9363 5.47802 9.65087 6.76341 9.65087 8.34719C9.65087 9.93097 10.9363 11.2164 12.52 11.2164C14.1038 11.2164 15.3891 9.93097 15.3891 8.34719C15.3891 6.76341 14.1038 5.47802 12.52 5.47802Z" fill="#39496A"/>
<path fill-rule="evenodd" clip-rule="evenodd" d="M17.5111 18.1301C18.3594 18.3847 19.0583 18.6998 19.5415 19.0691C19.8544 19.307 20.084 19.5397 20.084 19.8235C20.084 19.9904 19.989 20.1416 19.8554 20.2929C19.6343 20.5423 19.3056 20.7667 18.8988 20.9753C17.461 21.7108 15.1365 22.1709 12.5198 22.1709C9.90311 22.1709 7.57856 21.7108 6.14085 20.9753C5.73395 20.7667 5.4053 20.5423 5.18411 20.2929C5.05056 20.1416 4.95562 19.9904 4.95562 19.8235C4.95562 19.5397 5.18516 19.307 5.49816 19.0691C5.98123 18.6998 6.68026 18.3847 7.52848 18.1301C7.94165 18.006 8.1764 17.5688 8.05224 17.1557C7.92808 16.7414 7.49092 16.5067 7.07776 16.6309C5.78612 17.02 4.78243 17.5532 4.17938 18.1426C3.64937 18.6591 3.39062 19.2371 3.39062 19.8235C3.39062 20.5559 3.80483 21.2862 4.6468 21.8955C6.12416 22.9639 9.0914 23.7359 12.5198 23.7359C15.9481 23.7359 18.9154 22.9639 20.3927 21.8955C21.2348 21.2862 21.6489 20.5559 21.6489 19.8235C21.6489 19.2371 21.3902 18.6591 20.8601 18.1426C20.2572 17.5532 19.2534 17.02 17.9618 16.6309C17.5487 16.5067 17.1115 16.7414 16.9873 17.1557C16.8632 17.5688 17.0979 18.006 17.5111 18.1301Z" fill="#39496A"/>
</svg>
