<svg width="25" height="25" viewBox="0 0 25 25" fill="none" xmlns="http://www.w3.org/2000/svg">
<g clip-path="url(#clip0_2019_1516)">
<path d="M3.02353 17.135C3.58066 17.135 4.03119 16.6844 4.03119 16.1273C4.03119 15.5702 4.48249 15.1196 5.03886 15.1196H11.0864V16.1273C11.0864 16.3945 11.1925 16.6509 11.3815 16.8398C11.5705 17.0288 11.8268 17.135 12.094 17.135C12.3613 17.135 12.6176 17.0288 12.8066 16.8398C12.9955 16.6509 13.1017 16.3945 13.1017 16.1273V15.1196H19.1492C19.7056 15.1196 20.1569 15.5709 20.1569 16.1273C20.1569 16.3945 20.263 16.6509 20.452 16.8398C20.641 17.0288 20.8973 17.135 21.1645 17.135C21.4318 17.135 21.6881 17.0288 21.877 16.8398C22.066 16.6509 22.1722 16.3945 22.1722 16.1273C22.1722 14.4605 20.8153 13.1035 19.1484 13.1035H13.1009V11.9938C14.1701 11.7746 15.1392 11.2141 15.8624 10.3965L16.8262 10.9529C17.0577 11.0865 17.3327 11.1227 17.5909 11.0536C17.849 10.9844 18.0691 10.8155 18.2028 10.584C18.3364 10.3525 18.3726 10.0775 18.3034 9.81933C18.2342 9.56117 18.0653 9.34107 17.8339 9.20745L16.8731 8.65334C17.0416 8.1514 17.1323 7.61544 17.1323 7.05756C17.1323 6.49968 17.0409 5.96296 16.8731 5.46177L17.8339 4.90767C17.9485 4.84151 18.0489 4.75342 18.1295 4.64843C18.21 4.54345 18.2691 4.42362 18.3034 4.29579C18.3377 4.16797 18.3464 4.03465 18.3291 3.90344C18.3119 3.77224 18.2689 3.64572 18.2028 3.53111C18.1366 3.4165 18.0485 3.31605 17.9435 3.23548C17.8385 3.15492 17.7187 3.09582 17.5909 3.06157C17.463 3.02731 17.3297 3.01857 17.1985 3.03584C17.0673 3.05311 16.9408 3.09605 16.8262 3.16221L15.8624 3.71858C15.1391 2.90119 14.1701 2.34066 13.1009 2.12129V1.01157C13.1009 0.744322 12.9948 0.488018 12.8058 0.299044C12.6168 0.110071 12.3605 0.00390625 12.0933 0.00390625C11.826 0.00390625 11.5697 0.110071 11.3807 0.299044C11.1918 0.488018 11.0856 0.744322 11.0856 1.01157V2.12129C10.0164 2.34051 9.0473 2.90106 8.32416 3.71858L7.36034 3.16221C7.12888 3.02859 6.85382 2.99238 6.59566 3.06157C6.33751 3.13075 6.11741 3.29965 5.98378 3.53111C5.85016 3.76257 5.81395 4.03764 5.88313 4.29579C5.95232 4.55395 6.12122 4.77405 6.35268 4.90767L7.31348 5.46177C7.1449 5.96372 7.05419 6.49968 7.05419 7.05756C7.05419 7.61544 7.14566 8.15216 7.31348 8.65334L6.35268 9.20745C6.12122 9.34107 5.95232 9.56117 5.88313 9.81933C5.81395 10.0775 5.85016 10.3525 5.98378 10.584C6.11741 10.8155 6.33751 10.9844 6.59566 11.0536C6.85382 11.1227 7.12888 11.0865 7.36034 10.9529L8.32416 10.3965C9.04741 11.2139 10.0165 11.7745 11.0856 11.9938V13.1035H5.0381C3.37126 13.1035 2.01435 14.4605 2.01435 16.1273C2.01435 16.6844 2.46489 17.135 3.02202 17.135H3.02353ZM10.5829 7.05529C10.5829 6.22149 11.261 5.54342 12.0948 5.54342C12.9286 5.54342 13.6067 6.22149 13.6067 7.05529C13.6067 7.88909 12.9286 8.56717 12.0948 8.56717C11.261 8.56717 10.5829 7.88909 10.5829 7.05529ZM13.1024 18.1426H11.0864C10.5518 18.1432 10.0394 18.3558 9.66143 18.7338C9.28347 19.1117 9.07087 19.6242 9.07027 20.1587V22.1748C9.07087 22.7093 9.28347 23.2218 9.66143 23.5997C10.0394 23.9777 10.5518 24.1903 11.0864 24.1909H13.1024C13.637 24.1903 14.1494 23.9777 14.5274 23.5997C14.9053 23.2218 15.1179 22.7093 15.1185 22.1748V20.1587C15.1179 19.6242 14.9053 19.1117 14.5274 18.7338C14.1494 18.3558 13.637 18.1432 13.1024 18.1426ZM22.1737 18.1426H20.1576C19.6231 18.1432 19.1106 18.3558 18.7327 18.7338C18.3547 19.1117 18.1421 19.6242 18.1415 20.1587V22.1748C18.1421 22.7093 18.3547 23.2218 18.7327 23.5997C19.1106 23.9777 19.6231 24.1903 20.1576 24.1909H22.1737C22.7082 24.1903 23.2207 23.9777 23.5986 23.5997C23.9766 23.2218 24.1892 22.7093 24.1898 22.1748V20.1587C24.1892 19.6242 23.9766 19.1117 23.5986 18.7338C23.2207 18.3558 22.7082 18.1432 22.1737 18.1426ZM4.03119 18.1426H2.01511C1.48059 18.1432 0.968143 18.3558 0.590184 18.7338C0.212225 19.1117 -0.000376321 19.6242 -0.000976562 20.1587V22.1748C-0.000376321 22.7093 0.212225 23.2218 0.590184 23.5997C0.968143 23.9777 1.48059 24.1903 2.01511 24.1909H4.03119C4.56571 24.1903 5.07816 23.9777 5.45612 23.5997C5.83408 23.2218 6.04668 22.7093 6.04728 22.1748V20.1587C6.04668 19.6242 5.83408 19.1117 5.45612 18.7338C5.07816 18.3558 4.56571 18.1432 4.03119 18.1426Z" fill="white"/>
</g>
<defs>
<clipPath id="clip0_2019_1516">
<rect width="24.19" height="24.19" fill="white"/>
</clipPath>
</defs>
</svg>
