<svg width="57" height="57" viewBox="0 0 57 57" fill="none" xmlns="http://www.w3.org/2000/svg">
<g clip-path="url(#clip0_2019_2144)">
<g clip-path="url(#clip1_2019_2144)">
<g clip-path="url(#clip2_2019_2144)">
<mask id="mask0_2019_2144" style="mask-type:luminance" maskUnits="userSpaceOnUse" x="0" y="0" width="57" height="57">
<path d="M56.0234 0.550781H0.0234375V56.5508H56.0234V0.550781Z" fill="white"/>
</mask>
<g mask="url(#mask0_2019_2144)">
<path d="M27.9911 55.5526C25.6455 55.5526 23.3966 55.2526 21.2413 54.6982C22.3269 52.8423 23.6232 50.3409 24.1709 48.2153C24.1711 48.2145 24.1713 48.2137 24.1715 48.2129L25.4299 43.428C25.8979 43.8271 26.4313 44.1785 27.0017 44.4723C28.2726 45.127 29.8021 45.5359 31.3861 45.5359C40.5761 45.5359 46.9298 37.1297 46.9298 27.1246C46.9298 17.2752 38.8672 9.97094 28.6818 9.97094C22.4135 9.97094 17.5278 12.0832 14.2072 15.4225C10.8942 18.754 9.20175 23.2449 9.20175 27.8922C9.20175 30.1165 9.78792 32.5749 10.8353 34.6982C11.8767 36.8095 13.4338 38.7058 15.4597 39.6409C15.7734 39.786 16.3161 39.9841 16.8766 39.7567C17.4862 39.5093 17.7006 38.9425 17.786 38.5847C17.8855 38.1866 18.3563 36.2753 18.5661 35.401L18.5678 35.394L18.5694 35.3871C18.6224 35.1515 18.6503 34.8663 18.5819 34.5523C18.513 34.2358 18.3623 33.9632 18.1668 33.7262L18.1657 33.7249C17.1803 32.5344 16.3211 30.1798 16.3211 27.9669C16.3211 22.3218 20.5811 16.8359 27.9421 16.8359C31.1464 16.8359 33.8085 17.9249 35.6644 19.7299C37.5184 21.533 38.6274 24.1078 38.6274 27.1969C38.6274 30.8206 37.7098 33.8092 36.274 35.862C34.8455 37.9044 32.9301 38.9999 30.8354 38.9999C28.6633 38.9999 27.1689 37.2632 27.6664 35.1806C27.9432 34.0172 28.3081 32.834 28.6739 31.6479C28.8196 31.1754 28.9656 30.7023 29.1062 30.2295C29.5824 28.6286 30.0084 26.9994 30.0084 25.6336C30.0084 24.3948 29.6765 23.1661 28.9071 22.2266C28.1157 21.2601 26.937 20.6949 25.4664 20.6949C21.868 20.6949 19.4077 24.3351 19.4077 28.4872C19.4077 29.8367 19.6358 30.9697 19.8654 31.7694C19.9804 32.17 20.0965 32.4893 20.1861 32.7134C20.1893 32.7213 20.1925 32.7292 20.1956 32.7369L20.1522 32.9204L19.8315 34.2772C19.5638 35.4096 19.2017 36.9421 18.8235 38.543C18.0674 41.7439 17.2468 45.2203 16.991 46.315L16.9906 46.3169C16.525 48.3264 16.5638 50.9007 16.7185 52.9886C7.48978 48.707 1.09375 39.364 1.09375 28.5222C1.09375 14.2407 12.1959 2.55093 26.2422 1.61328H27.9911C42.8558 1.61328 54.9561 13.6822 54.9561 28.5829C54.9561 43.4814 42.8557 55.5526 27.9911 55.5526Z" stroke="url(#paint0_linear_2019_2144)" stroke-width="2"/>
</g>
</g>
</g>
</g>
<defs>
<linearGradient id="paint0_linear_2019_2144" x1="-10.0504" y1="27.9322" x2="59.3134" y2="8.27821" gradientUnits="userSpaceOnUse">
<stop stop-color="white"/>
<stop offset="1" stop-color="white"/>
</linearGradient>
<clipPath id="clip0_2019_2144">
<rect width="57" height="57" fill="white"/>
</clipPath>
<clipPath id="clip1_2019_2144">
<rect width="57" height="57" fill="white"/>
</clipPath>
<clipPath id="clip2_2019_2144">
<rect width="57" height="57" fill="white"/>
</clipPath>
</defs>
</svg>
