<svg width="16" height="16" viewBox="0 0 16 16" fill="none" xmlns="http://www.w3.org/2000/svg">
<path d="M14.5688 6.79875H8.74125V0.97125C8.74125 0.713658 8.63892 0.466617 8.45678 0.284473C8.27463 0.102328 8.02759 0 7.77 0C7.51241 0 7.26537 0.102328 7.08322 0.284473C6.90108 0.466617 6.79875 0.713658 6.79875 0.97125V6.79875H0.97125C0.713658 6.79875 0.466617 6.90108 0.284473 7.08322C0.102328 7.26537 0 7.51241 0 7.77C0 8.02759 0.102328 8.27463 0.284473 8.45678C0.466617 8.63892 0.713658 8.74125 0.97125 8.74125H6.79875V14.5688C6.79875 14.8263 6.90108 15.0734 7.08322 15.2555C7.26537 15.4377 7.51241 15.54 7.77 15.54C8.02759 15.54 8.27463 15.4377 8.45678 15.2555C8.63892 15.0734 8.74125 14.8263 8.74125 14.5688V8.74125H14.5688C14.8263 8.74125 15.0734 8.63892 15.2555 8.45678C15.4377 8.27463 15.54 8.02759 15.54 7.77C15.54 7.51241 15.4377 7.26537 15.2555 7.08322C15.0734 6.90108 14.8263 6.79875 14.5688 6.79875Z" fill="black"/>
</svg>
