<svg width="73" height="73" viewBox="0 0 73 73" fill="none" xmlns="http://www.w3.org/2000/svg">
<g clip-path="url(#clip0_2019_2124)">
<g clip-path="url(#clip1_2019_2124)">
<g clip-path="url(#clip2_2019_2124)">
<mask id="mask0_2019_2124" style="mask-type:luminance" maskUnits="userSpaceOnUse" x="0" y="0" width="73" height="73">
<path d="M72.8408 0.191406H0.84082V72.1914H72.8408V0.191406Z" fill="white"/>
</mask>
<g mask="url(#mask0_2019_2124)">
<path d="M65.741 13.1641H7.9401C4.02106 13.1685 0.845193 16.3443 0.84082 20.2634V52.1188C0.845193 56.0377 4.02106 59.2137 7.9401 59.2181H65.741C69.6602 59.2138 72.8363 56.038 72.8407 52.1188V20.2634C72.8363 16.3443 69.6602 13.1685 65.741 13.1641ZM49.3495 36.1911L69.8211 18.9486C69.9585 19.3733 70.0284 19.817 70.0282 20.2632V52.1187C70.0284 52.5649 69.9585 53.0086 69.8212 53.4333L49.3495 36.1911ZM65.741 15.9766C66.5896 15.9757 67.419 16.228 68.1234 16.7013L36.8408 43.0499L5.55813 16.7013C6.26238 16.228 7.09184 15.9757 7.94024 15.9768L65.741 15.9766ZM3.86059 53.4339C3.72315 53.009 3.65334 52.5654 3.65348 52.1189V20.2634C3.65334 19.8171 3.7233 19.3733 3.86059 18.9486L24.3319 36.1911L3.86059 53.4339ZM7.9401 56.4057C7.09184 56.4069 6.26238 56.1547 5.55813 55.6818L26.5148 38.0304L35.9348 45.9644C36.4582 46.4053 37.2232 46.4053 37.7466 45.9644L47.1666 38.0303L68.1231 55.6809C67.4189 56.1541 66.5894 56.4066 65.7409 56.4056L7.9401 56.4057Z" fill="url(#paint0_linear_2019_2124)"/>
</g>
</g>
</g>
</g>
<defs>
<linearGradient id="paint0_linear_2019_2124" x1="-12.2337" y1="35.6809" x2="68.4373" y2="-0.142761" gradientUnits="userSpaceOnUse">
<stop stop-color="white"/>
<stop offset="1" stop-color="white"/>
</linearGradient>
<clipPath id="clip0_2019_2124">
<rect width="73" height="73" fill="white"/>
</clipPath>
<clipPath id="clip1_2019_2124">
<rect width="73" height="73" fill="white"/>
</clipPath>
<clipPath id="clip2_2019_2124">
<rect width="73" height="73" fill="white"/>
</clipPath>
</defs>
</svg>
