<svg width="70" height="70" viewBox="0 0 70 70" fill="none" xmlns="http://www.w3.org/2000/svg">
<g clip-path="url(#clip0_2019_2110)">
<g clip-path="url(#clip1_2019_2110)">
<mask id="mask0_2019_2110" style="mask-type:luminance" maskUnits="userSpaceOnUse" x="0" y="0" width="70" height="70">
<path d="M68.75 68.75V1.25H1.25V68.75H68.75Z" fill="white" stroke="white" stroke-width="2.5"/>
</mask>
<g mask="url(#mask0_2019_2110)">
<path d="M35.0117 2.73438C17.192 2.73438 2.74609 17.1802 2.74609 35C2.74609 41.9138 4.92169 48.3189 8.62418 53.5703L3.83984 67.2656H35.0117C52.8315 67.2656 67.2773 52.8198 67.2773 35C67.2773 17.1802 52.8315 2.73438 35.0117 2.73438Z" stroke="url(#paint0_linear_2019_2110)" stroke-width="2.5" stroke-miterlimit="10" stroke-linecap="round"/>
<path d="M21.2228 42.5001C19.9826 42.5001 18.9268 42.2201 18.055 41.6602C17.1955 41.0877 16.5938 40.2976 16.25 39.2897L18.0734 38.2071C18.589 39.6755 19.6572 40.4096 21.278 40.4096C22.0639 40.4096 22.6594 40.2541 23.0645 39.943C23.4697 39.6318 23.6722 39.215 23.6722 38.6923C23.6722 38.1697 23.4574 37.7653 23.0277 37.4792C22.598 37.193 21.8368 36.8818 20.7439 36.546C19.6266 36.21 18.7241 35.8117 18.0365 35.3513C17.2016 34.7541 16.7841 33.8768 16.7841 32.7196C16.7841 31.5623 17.1893 30.6477 17.9996 29.9757C18.7978 29.2913 19.7739 28.9492 20.9281 28.9492C21.9473 28.9492 22.8435 29.2042 23.617 29.7145C24.4029 30.2122 25.0045 30.9152 25.422 31.8236L23.6355 32.8688C23.0952 31.6495 22.1928 31.0397 20.9281 31.0397C20.3141 31.0397 19.823 31.189 19.4546 31.4876C19.0864 31.7738 18.9021 32.1658 18.9021 32.6636C18.9021 33.1488 19.0864 33.5346 19.4546 33.8208C19.823 34.0946 20.5045 34.387 21.499 34.6981C22.113 34.9096 22.469 35.034 22.5673 35.0713C22.7269 35.1211 23.0461 35.2456 23.525 35.4447C23.9179 35.6065 24.231 35.7806 24.4642 35.9673C25.422 36.7263 25.864 37.6222 25.7904 38.6551C25.7904 39.8372 25.3668 40.7767 24.5195 41.4735C23.6969 42.1578 22.598 42.5001 21.2228 42.5001Z" fill="url(#paint1_linear_2019_2110)"/>
<path d="M39.0241 28.9922H41.2895V42.0578H39.1715V32.7439L35.2485 39.3141H34.9907L31.0677 32.7252V42.0578H28.9497V28.9922H31.2335L35.1196 35.5251L39.0241 28.9922Z" fill="url(#paint2_linear_2019_2110)"/>
<path d="M49.1744 42.3009C47.9343 42.3009 46.8784 42.0209 46.0067 41.461C45.1472 40.8886 44.5455 40.0984 44.2017 39.0905L46.025 38.0079C46.5408 39.4762 47.6089 40.2104 49.2297 40.2104C50.0155 40.2104 50.611 40.0549 51.0162 39.7437C51.4214 39.4327 51.624 39.0159 51.624 38.4932C51.624 37.9706 51.4092 37.5661 50.9794 37.28C50.5497 36.9937 49.7884 36.6828 48.6955 36.3468C47.5783 36.0108 46.6758 35.6125 45.9882 35.1521C45.1533 34.5549 44.7358 33.6776 44.7358 32.5204C44.7358 31.3631 45.141 30.4485 45.9514 29.7766C46.7494 29.0923 47.7255 28.75 48.8798 28.75C49.8989 28.75 50.7952 29.0051 51.5688 29.5152C52.3545 30.013 52.9562 30.7161 53.3737 31.6244L51.5872 32.6696C51.0469 31.4503 50.1444 30.8405 48.8798 30.8405C48.2658 30.8405 47.7747 30.9899 47.4064 31.2885C47.038 31.5746 46.8538 31.9666 46.8538 32.4644C46.8538 32.9496 47.038 33.3354 47.4064 33.6216C47.7747 33.8954 48.4562 34.1878 49.4507 34.4989C50.0647 34.7104 50.4207 34.8349 50.5189 34.8721C50.6785 34.922 50.9978 35.0464 51.4767 35.2455C51.8695 35.4072 52.1827 35.5815 52.4159 35.7681C53.3737 36.5271 53.8157 37.4231 53.742 38.4559C53.742 39.638 53.3184 40.5775 52.4712 41.2744C51.6485 41.9588 50.5497 42.3009 49.1744 42.3009Z" fill="url(#paint3_linear_2019_2110)"/>
</g>
</g>
</g>
<defs>
<linearGradient id="paint0_linear_2019_2110" x1="-8.97227" y1="35.7149" x2="71.1262" y2="58.4665" gradientUnits="userSpaceOnUse">
<stop stop-color="white"/>
<stop offset="1" stop-color="white"/>
</linearGradient>
<linearGradient id="paint1_linear_2019_2110" x1="9.4403" y1="35.4727" x2="40.8767" y2="11.12" gradientUnits="userSpaceOnUse">
<stop stop-color="white"/>
<stop offset="1" stop-color="white"/>
</linearGradient>
<linearGradient id="paint2_linear_2019_2110" x1="9.44051" y1="35.4722" x2="40.877" y2="11.1194" gradientUnits="userSpaceOnUse">
<stop stop-color="white"/>
<stop offset="1" stop-color="white"/>
</linearGradient>
<linearGradient id="paint3_linear_2019_2110" x1="9.44022" y1="35.4726" x2="40.8767" y2="11.1199" gradientUnits="userSpaceOnUse">
<stop stop-color="white"/>
<stop offset="1" stop-color="white"/>
</linearGradient>
<clipPath id="clip0_2019_2110">
<rect width="70" height="70" fill="white"/>
</clipPath>
<clipPath id="clip1_2019_2110">
<rect width="70" height="70" fill="white"/>
</clipPath>
</defs>
</svg>
