<svg width="29" height="28" viewBox="0 0 29 28" fill="none" xmlns="http://www.w3.org/2000/svg">
<path d="M13.1893 0.723845C13.5029 -0.241281 14.8682 -0.241282 15.1819 0.723845L17.8125 8.82004C17.9527 9.25165 18.3549 9.54389 18.8088 9.54389H27.3216C28.3364 9.54389 28.7584 10.8424 27.9373 11.4389L21.0503 16.4426C20.6832 16.7094 20.5295 17.1823 20.6697 17.6139L23.3004 25.71C23.614 26.6752 22.5093 27.4777 21.6884 26.8812L14.8013 21.8776C14.4342 21.6108 13.937 21.6108 13.5698 21.8776L6.68282 26.8812C5.86184 27.4777 4.7572 26.6752 5.07079 25.71L7.70141 17.6139C7.84165 17.1823 7.68801 16.7094 7.32086 16.4426L0.433827 11.4389C-0.387159 10.8424 0.0347721 9.54389 1.04957 9.54389H9.56241C10.0162 9.54389 10.4185 9.25165 10.5587 8.82004L13.1893 0.723845Z" fill="white"/>
</svg>
