<svg width="57" height="57" viewBox="0 0 57 57" fill="none" xmlns="http://www.w3.org/2000/svg">
<g clip-path="url(#clip0_2019_2153)">
<g clip-path="url(#clip1_2019_2153)">
<mask id="mask0_2019_2153" style="mask-type:luminance" maskUnits="userSpaceOnUse" x="0" y="0" width="57" height="57">
<path d="M56.5391 0.3125H0.539062V56.3125H56.5391V0.3125Z" fill="white"/>
</mask>
<g mask="url(#mask0_2019_2153)">
<path d="M11.3891 39.6687C9.95972 38.5985 8.82606 37.1889 8.08418 35.5744C9.46901 35.6816 10.8655 35.5489 12.212 35.1786L12.1557 33.5958C7.67217 32.6993 4.19202 28.9402 3.66951 24.286C4.99818 24.8153 6.45702 25.1464 8.00762 25.1464H10.7538L8.45105 23.6501C5.57723 21.7828 3.70864 18.4887 3.70864 14.7554C3.70864 13.2226 4.03097 11.7536 4.61373 10.4327C10.3876 17.0396 18.7396 21.3623 28.0696 21.8364L29.1398 21.8908L28.9049 20.8452C28.73 20.0666 28.6302 19.2387 28.6302 18.3872C28.6302 12.4546 33.4117 7.66016 39.2466 7.66016C42.3939 7.66016 45.1463 8.91136 47.1048 11.054L47.4172 11.3958L47.8706 11.3018C49.7626 10.9098 51.5894 10.3095 53.3113 9.49956C52.4005 11.1042 51.0929 12.4423 49.5327 13.3867L50.0578 14.8901C51.471 14.7084 52.8568 14.4088 54.1978 13.9905C53.0523 15.3394 51.7598 16.5427 50.3361 17.5647L49.9747 17.8241L49.9979 18.2684C50.0234 18.7549 50.0236 19.2182 50.0236 19.7323C50.0236 34.6392 38.7007 51.7658 18.1529 51.7658C13.0204 51.7658 8.16425 50.5363 3.86325 48.3581C9.01468 48.2521 13.9964 46.4561 18.0439 43.2358L19.8151 41.8267L17.5522 41.7853C15.3286 41.7445 13.1733 41.0045 11.3891 39.6687ZM3.26562 48.3628H3.26759L3.26715 48.0482L3.26562 48.3628Z" stroke="url(#paint0_linear_2019_2153)" stroke-width="1.62768"/>
</g>
</g>
</g>
<defs>
<linearGradient id="paint0_linear_2019_2153" x1="-9.62999" y1="29.2063" x2="57.3809" y2="5.89925" gradientUnits="userSpaceOnUse">
<stop stop-color="white"/>
<stop offset="1" stop-color="white"/>
</linearGradient>
<clipPath id="clip0_2019_2153">
<rect width="57" height="57" fill="white"/>
</clipPath>
<clipPath id="clip1_2019_2153">
<rect width="57" height="57" fill="white"/>
</clipPath>
</defs>
</svg>
